<svg width="41" height="40" viewBox="0 0 41 40" fill="none" xmlns="http://www.w3.org/2000/svg">
<path d="M16.7501 32.5C13.3631 32.4984 10.0613 31.4381 7.3067 29.4674C4.55209 27.4966 2.48247 24.7141 1.3874 21.509C0.292322 18.3039 0.22658 14.8367 1.19937 11.5924C2.17216 8.34815 4.13481 5.48913 6.81273 3.41538C9.49064 1.34163 12.7498 0.156908 16.1343 0.0269593C19.5188 -0.102989 22.8593 0.828342 25.6883 2.69065C28.5174 4.55295 30.6935 7.25306 31.9121 10.4132C33.1308 13.5733 33.3311 17.0354 32.4851 20.315C32.3965 20.6296 32.1882 20.8969 31.9049 21.0598C31.6216 21.2227 31.2857 21.2681 30.9693 21.1864C30.6529 21.1047 30.3811 20.9023 30.212 20.6226C30.043 20.3429 29.9903 20.0081 30.0651 19.69C30.356 18.5666 30.5022 17.4105 30.5001 16.25C30.5001 13.5305 29.6936 10.8721 28.1828 8.61091C26.6719 6.34973 24.5244 4.58736 22.012 3.54666C19.4995 2.50595 16.7348 2.23365 14.0676 2.7642C11.4003 3.29475 8.95031 4.60431 7.02734 6.52728C5.10437 8.45025 3.7948 10.9003 3.26426 13.5675C2.73371 16.2347 3.00601 18.9994 4.04671 21.5119C5.08742 24.0244 6.84979 26.1718 9.11096 27.6827C11.3721 29.1936 14.0306 30 16.7501 30C19.5561 30.0093 22.2961 29.1495 24.5938 27.5388C25.9401 26.6146 27.1049 25.4506 28.0301 24.105C28.2175 23.8313 28.506 23.6433 28.8321 23.5824C29.1582 23.5214 29.4951 23.5925 29.7688 23.78C30.0425 23.9675 30.2305 24.256 30.2914 24.5821C30.3524 24.9081 30.2813 25.2451 30.0938 25.5188C28.997 27.1129 27.6176 28.4927 26.0238 29.59C23.3069 31.4936 20.0675 32.5101 16.7501 32.5Z" fill="#2B4CD2"/>
<path d="M36.5988 40C35.5646 39.9972 34.5733 39.5867 33.84 38.8575L24.4288 29.4462C24.2011 29.2105 24.0751 28.8947 24.0779 28.567C24.0808 28.2393 24.2122 27.9257 24.444 27.694C24.6758 27.4622 24.9893 27.3308 25.317 27.3279C25.6448 27.3251 25.9605 27.4511 26.1963 27.6787L35.6075 37.09C35.8704 37.3529 36.227 37.5006 36.5988 37.5006C36.9706 37.5006 37.3271 37.3529 37.59 37.09C37.8529 36.8271 38.0006 36.4705 38.0006 36.0987C38.0006 35.727 37.8529 35.3704 37.59 35.1075L28.1788 25.6962C27.9511 25.4605 27.8251 25.1447 27.8279 24.817C27.8308 24.4893 27.9622 24.1757 28.194 23.944C28.4258 23.7122 28.7393 23.5808 29.067 23.5779C29.3948 23.5751 29.7105 23.7011 29.9463 23.9287L39.3575 33.34C39.9032 33.8856 40.2748 34.5808 40.4253 35.3376C40.5759 36.0944 40.4986 36.8788 40.2033 37.5917C39.908 38.3046 39.408 38.9139 38.7663 39.3426C38.1247 39.7713 37.3704 40.0001 36.5988 40Z" fill="#2B4CD2"/>
<path d="M24.25 18.75H9.25C8.58696 18.75 7.95107 18.4866 7.48223 18.0178C7.01339 17.5489 6.75 16.913 6.75 16.25V12.5C6.75 12.1685 6.8817 11.8505 7.11612 11.6161C7.35054 11.3817 7.66848 11.25 8 11.25H25.5C25.8315 11.25 26.1495 11.3817 26.3839 11.6161C26.6183 11.8505 26.75 12.1685 26.75 12.5V16.25C26.75 16.913 26.4866 17.5489 26.0178 18.0178C25.5489 18.4866 24.913 18.75 24.25 18.75ZM9.25 13.75V16.25H24.25V13.75H9.25Z" fill="#89A8FC"/>
<path d="M21.75 26.25H11.75C10.7554 26.25 9.80161 25.8549 9.09835 25.1517C8.39509 24.4484 8 23.4946 8 22.5V17.5C8 17.1685 8.1317 16.8505 8.36612 16.6161C8.60054 16.3817 8.91848 16.25 9.25 16.25H24.25C24.5815 16.25 24.8995 16.3817 25.1339 16.6161C25.3683 16.8505 25.5 17.1685 25.5 17.5V22.5C25.5 23.4946 25.1049 24.4484 24.4017 25.1517C23.6984 25.8549 22.7446 26.25 21.75 26.25ZM10.5 18.75V22.5C10.5 22.8315 10.6317 23.1495 10.8661 23.3839C11.1005 23.6183 11.4185 23.75 11.75 23.75H21.75C22.0815 23.75 22.3995 23.6183 22.6339 23.3839C22.8683 23.1495 23 22.8315 23 22.5V18.75H10.5Z" fill="#89A8FC"/>
<path d="M21.75 13.75H11.75C11.4185 13.75 11.1005 13.6183 10.8661 13.3839C10.6317 13.1495 10.5 12.8315 10.5 12.5V10C10.5 9.00544 10.8951 8.05161 11.5983 7.34835C12.3016 6.64509 13.2554 6.25 14.25 6.25H19.25C20.2446 6.25 21.1984 6.64509 21.9017 7.34835C22.6049 8.05161 23 9.00544 23 10V12.5C23 12.8315 22.8683 13.1495 22.6339 13.3839C22.3995 13.6183 22.0815 13.75 21.75 13.75ZM13 11.25H20.5V10C20.5 9.66848 20.3683 9.35054 20.1339 9.11612C19.8995 8.8817 19.5815 8.75 19.25 8.75H14.25C13.9185 8.75 13.6005 8.8817 13.3661 9.11612C13.1317 9.35054 13 9.66848 13 10V11.25Z" fill="#89A8FC"/>
</svg>
