<svg width="16" height="16" viewBox="0 0 16 16" fill="none" xmlns="http://www.w3.org/2000/svg">
<g style="mix-blend-mode:darken">
<path d="M4.89697 7.082H11.191V7.6065H4.89697V7.082Z" fill="#5D6683"/>
<path d="M4.89697 9.17999H11.191V9.70449H4.89697V9.17999Z" fill="#5D6683"/>
<path d="M4.89697 11.2785H9.09297V11.803H4.89697V11.2785Z" fill="#5D6683"/>
<path d="M9.59401 1.83701C9.46901 1.09301 8.82351 0.525513 8.04401 0.525513C7.26451 0.525513 6.61901 1.09301 6.49401 1.83701H1.74951V15.4745H14.3375V1.83701H9.59401ZM6.99501 3.04101V2.09901C6.99501 1.52051 7.46551 1.05001 8.04401 1.05001C8.62251 1.05001 9.09301 1.52051 9.09301 2.09901V3.04101L9.35851 3.19201C9.87351 3.48501 10.2685 3.93051 10.495 4.45951H5.59351C5.82001 3.93051 6.21501 3.48501 6.73001 3.19201L6.99501 3.04101ZM13.814 14.95H2.27501V2.36151H6.47101V2.73601C5.65201 3.20201 5.05901 4.01901 4.89751 4.98401H11.1915C11.0305 4.01901 10.437 3.20251 9.61801 2.73601V2.36151H13.814V14.95Z" fill="#5D6683"/>
</g>
</svg>
