<svg width="16" height="16" viewBox="0 0 16 16" fill="none" xmlns="http://www.w3.org/2000/svg">
<g style="mix-blend-mode:darken" clip-path="url(#clip0_2035_5877)">
<path d="M15.4246 3.55207C15.4246 1.85181 14.0413 0.468526 12.341 0.468526H5.78428C5.56336 0.468526 5.38428 0.647606 5.38428 0.868526C5.38428 1.08945 5.56336 1.26853 5.78428 1.26853H12.341C13.6002 1.26853 14.6246 2.29293 14.6246 3.55207L14.6246 12.4479C14.6246 13.0578 14.3871 13.6312 13.9558 14.0626C13.5245 14.4938 12.951 14.7314 12.3411 14.7314L6.34226 14.7314C5.0831 14.7314 4.05872 13.707 4.05872 12.4478V3.55205C4.05872 1.85179 2.67546 0.468506 0.975195 0.468506C0.754295 0.468506 0.575195 0.647586 0.575195 0.868506C0.575195 1.08943 0.754295 1.26851 0.975195 1.26851C2.23434 1.26851 3.25872 2.29291 3.25872 3.55205V12.4478C3.25872 14.1481 4.642 15.5314 6.34226 15.5314L12.3411 15.5314C12.3411 15.5314 12.3411 15.5314 12.3411 15.5314C13.1647 15.5314 13.9391 15.2106 14.5215 14.6282C15.1039 14.0458 15.4246 13.2715 15.4246 12.4478L15.4246 3.55207Z" fill="#5D6683"/>
<path d="M4.4332 1.26857H4.56724C4.78816 1.26857 4.96724 1.08949 4.96724 0.868567C4.96724 0.647647 4.78816 0.468567 4.56724 0.468567H4.4332C4.2123 0.468567 4.0332 0.647647 4.0332 0.868567C4.0332 1.08949 4.2123 1.26857 4.4332 1.26857Z" fill="#5D6683"/>
<path d="M7.64304 12.902C7.68408 13.0423 7.79836 13.149 7.9411 13.1804L8.54856 13.3139L8.6821 13.9214C8.71346 14.0641 8.8202 14.1784 8.9605 14.2194C8.9975 14.2302 9.03526 14.2355 9.07272 14.2355C9.1773 14.2355 9.27952 14.1944 9.35562 14.1183L10.9723 12.5016C10.996 12.5026 11.0198 12.5034 11.0437 12.5034C11.0677 12.5034 11.0914 12.5026 11.1151 12.5016L12.7318 14.1183C12.8079 14.1944 12.9101 14.2355 13.0147 14.2355C13.0522 14.2355 13.09 14.2302 13.1269 14.2194C13.2672 14.1784 13.374 14.0641 13.4053 13.9214L13.5389 13.3139L14.1463 13.1804C14.2891 13.149 14.4034 13.0423 14.4444 12.902C14.4854 12.7617 14.4467 12.6102 14.3433 12.5068L12.7266 10.8901C12.7276 10.8664 12.7284 10.8427 12.7284 10.8187C12.7284 9.88977 11.9727 9.13403 11.0437 9.13403C10.1148 9.13403 9.35902 9.88977 9.35902 10.8187C9.35902 10.8427 9.35984 10.8664 9.36084 10.8901L7.74414 12.5068C7.64078 12.6102 7.60202 12.7617 7.64304 12.902ZM13.261 12.5559L13.1173 12.5874C12.9649 12.6209 12.846 12.7399 12.8125 12.8922L12.7809 13.036L11.9699 12.225C12.1605 12.099 12.3241 11.9355 12.45 11.7449L13.261 12.5559ZM11.0437 9.93401C11.5316 9.93401 11.9284 10.3309 11.9284 10.8187C11.9284 11.3065 11.5315 11.7034 11.0437 11.7034C10.5559 11.7034 10.159 11.3065 10.159 10.8187C10.159 10.3309 10.5559 9.93401 11.0437 9.93401ZM9.63744 11.7449C9.7634 11.9355 9.92696 12.099 10.1176 12.225L9.30658 13.036L9.275 12.8922C9.2415 12.7399 9.12252 12.6209 8.97018 12.5874L8.82648 12.5559L9.63744 11.7449Z" fill="#5D6683"/>
<path d="M13.1512 3.83204C13.3722 3.83204 13.5512 3.65296 13.5512 3.43204C13.5512 3.21112 13.3722 3.03204 13.1512 3.03204H13.0279C12.807 3.03204 12.6279 3.21112 12.6279 3.43204C12.6279 3.65296 12.807 3.83204 13.0279 3.83204H13.1512Z" fill="#5D6683"/>
<path d="M5.56211 3.83204H11.8021C12.0231 3.83204 12.2021 3.65296 12.2021 3.43204C12.2021 3.21112 12.0231 3.03204 11.8021 3.03204H5.56211C5.34119 3.03204 5.16211 3.21112 5.16211 3.43204C5.16211 3.65296 5.34119 3.83204 5.56211 3.83204Z" fill="#5D6683"/>
<path d="M5.56211 6.11189H5.68541C5.90633 6.11189 6.08541 5.93281 6.08541 5.71189C6.08541 5.49097 5.90633 5.31189 5.68541 5.31189H5.56211C5.34119 5.31189 5.16211 5.49097 5.16211 5.71189C5.16211 5.93281 5.34119 6.11189 5.56211 6.11189Z" fill="#5D6683"/>
<path d="M6.51172 5.71189C6.51172 5.93281 6.6908 6.11189 6.91172 6.11189H13.1518C13.3727 6.11189 13.5518 5.93281 13.5518 5.71189C13.5518 5.49097 13.3727 5.31189 13.1518 5.31189H6.91172C6.6908 5.31189 6.51172 5.49097 6.51172 5.71189Z" fill="#5D6683"/>
<path d="M13.0279 8.3918H13.1512C13.3722 8.3918 13.5512 8.21272 13.5512 7.9918C13.5512 7.77088 13.3722 7.5918 13.1512 7.5918H13.0279C12.807 7.5918 12.6279 7.77088 12.6279 7.9918C12.6279 8.21272 12.807 8.3918 13.0279 8.3918Z" fill="#5D6683"/>
<path d="M5.56211 8.3918H11.8021C12.0231 8.3918 12.2021 8.21272 12.2021 7.9918C12.2021 7.77088 12.0231 7.5918 11.8021 7.5918H5.56211C5.34119 7.5918 5.16211 7.77088 5.16211 7.9918C5.16211 8.21272 5.34119 8.3918 5.56211 8.3918Z" fill="#5D6683"/>
</g>
<defs>
<clipPath id="clip0_2035_5877">
<rect width="16" height="16" fill="white"/>
</clipPath>
</defs>
</svg>
