<svg width="179" height="233" viewBox="0 0 179 233" fill="none" xmlns="http://www.w3.org/2000/svg">
<rect x="22.4904" y="36.5036" width="80.9923" height="106.089" rx="16" fill="#FBD44A"/>
<rect opacity="0.2" x="61.8988" y="30.7999" width="80.9923" height="106.089" rx="16" transform="rotate(25.1651 61.8988 30.7999)" fill="#FF9228"/>
<rect x="33.8978" y="50.1924" width="23.9555" height="23.9555" rx="6" fill="white"/>
<path d="M37.32 91.259H88.6532" stroke="white" stroke-width="5" stroke-linecap="square"/>
<path d="M37.32 108.37H88.6532" stroke="white" stroke-width="5" stroke-linecap="square"/>
<path d="M37.32 125.481H69.2607" stroke="white" stroke-width="5" stroke-linecap="square"/>
<circle opacity="0.1" cx="4.79543" cy="4.79543" r="4.79543" transform="matrix(1 0 0 -1 122.163 102.07)" fill="#27308C"/>
<circle opacity="0.2" cx="2.87726" cy="2.87726" r="2.87726" transform="matrix(1 0 0 -1 41.6005 232.505)" fill="#27308C"/>
<path d="M10.619 74.1701C9.47165 71.3127 11.8479 68.2847 14.8962 68.7199L22.5575 69.8134C25.6058 70.2486 27.04 73.8204 25.139 76.2427L20.3612 82.3309C18.4603 84.7532 14.6499 84.2093 13.5026 81.3518L10.619 74.1701Z" fill="#FF9E87"/>
<path d="M7.93932 167.642C6.78295 164.762 9.1779 161.711 12.2502 162.149C15.3225 162.588 16.768 166.188 14.8521 168.629C12.9361 171.071 9.09568 170.522 7.93932 167.642Z" fill="#FF9E87"/>
<path d="M149.371 145.227C147.122 139.627 151.779 133.693 157.754 134.545C163.728 135.398 166.539 142.399 162.813 147.146C159.087 151.894 151.619 150.828 149.371 145.227Z" fill="#FF9E87"/>
<path opacity="0.2" d="M112.124 200.547C109.964 198.352 110.99 194.643 113.971 193.869L121.462 191.926C124.443 191.153 127.142 193.897 126.322 196.865L124.259 204.324C123.438 207.291 119.712 208.258 117.552 206.063L112.124 200.547Z" fill="#FF9E87"/>
<path opacity="0.3" d="M157.048 77.901C152.903 84.0496 152.645 65.1001 146.497 60.9544C140.348 56.8087 123.266 54.2348 127.412 48.0863C131.557 41.9377 151.313 45.6938 157.461 49.8395C163.61 53.9852 161.194 71.7524 157.048 77.901Z" fill="#03A9F4"/>
<path d="M98.9181 83.8442C79.2697 83.8442 75.0585 79.6328 75.0585 59.9845" stroke="#3C65F5" stroke-width="4" stroke-linecap="round"/>
<path d="M146.925 59.9845C146.925 79.6328 142.714 83.8442 123.065 83.8442" stroke="#3C65F5" stroke-width="4" stroke-linecap="round"/>
<path d="M123.065 11.9777C142.714 11.9777 146.925 16.189 146.925 35.8374" stroke="#3C65F5" stroke-width="4" stroke-linecap="round"/>
<path d="M95.0214 63.8813C98.6634 59.0327 104.462 55.8961 110.993 55.8961C117.524 55.8961 123.323 59.0327 126.965 63.8813" stroke="#3C65F5" stroke-width="4" stroke-linecap="round"/>
<path d="M99.014 39.9705V39.9258" stroke="#3C65F5" stroke-width="4" stroke-linecap="round"/>
<path d="M122.969 39.9705V39.9258" stroke="#3C65F5" stroke-width="4" stroke-linecap="round"/>
<path d="M75.0585 35.8374C75.0585 16.189 79.2697 11.9777 98.9181 11.9777" stroke="#3C65F5" stroke-width="4" stroke-linecap="round"/>
<g clip-path="url(#clip0_67_3178)">
<path d="M88.7423 164.276C77.9256 164.276 67.7557 160.062 60.1063 152.413C44.3172 136.624 44.3172 110.93 60.1063 95.1411C67.7559 87.4917 77.9258 83.2785 88.7423 83.2785C99.5589 83.2785 109.729 87.4917 117.378 95.1411C125.029 102.791 129.243 112.96 129.243 123.777C129.244 134.594 125.031 144.764 117.382 152.413C109.731 160.062 99.561 164.276 88.7423 164.276ZM88.7423 85.0785C78.4054 85.0785 68.6873 89.1054 61.3788 96.4139C46.2909 111.502 46.2909 136.053 61.3788 151.141C68.6873 158.449 78.4054 162.476 88.7423 162.476C99.0792 162.476 108.799 158.449 116.109 151.141C123.418 143.831 127.444 134.114 127.443 123.777C127.443 113.44 123.416 103.722 116.106 96.4137C108.797 89.1054 99.0794 85.0785 88.7423 85.0785Z" fill="#D454D7"/>
<path d="M88.7423 160.672C78.8872 160.672 69.6205 156.835 62.6516 149.868C55.6843 142.901 51.8471 133.636 51.8471 123.779C51.8489 113.922 55.6861 104.657 62.6552 97.6898C69.6225 90.7205 78.889 86.8819 88.7459 86.8819C98.6012 86.8819 107.866 90.7189 114.833 97.6864C129.216 112.073 129.216 135.48 114.837 149.868C107.866 156.835 98.5994 160.672 88.7423 160.672ZM88.7459 88.6817C79.3687 88.6817 70.5559 92.3326 63.9277 98.9623C57.2995 105.591 53.6489 114.404 53.6471 123.779C53.6471 133.154 57.2959 141.967 63.9241 148.595C70.5523 155.222 79.3669 158.873 88.7423 158.873C98.1178 158.873 106.934 155.222 113.564 148.595C127.242 134.91 127.241 112.642 113.561 98.9587C106.934 92.3326 98.1214 88.6817 88.7459 88.6817Z" fill="#D454D7"/>
<path d="M59.9447 124.681C59.4474 124.681 59.0446 124.278 59.0446 123.781C59.0446 107.406 72.3679 94.083 88.7423 94.083C89.2398 94.083 89.6424 94.4856 89.6424 94.9829C89.6425 95.1011 89.6192 95.2182 89.574 95.3274C89.5288 95.4367 89.4625 95.5359 89.3789 95.6195C89.2953 95.703 89.196 95.7693 89.0868 95.8145C88.9776 95.8597 88.8605 95.8829 88.7423 95.8828C73.3593 95.8828 60.8446 108.398 60.8446 123.781C60.8447 123.899 60.8214 124.016 60.7762 124.125C60.731 124.234 60.6648 124.334 60.5812 124.417C60.4976 124.501 60.3984 124.567 60.2892 124.612C60.18 124.657 60.0629 124.681 59.9447 124.681ZM123.674 165.968C123.556 165.968 123.439 165.945 123.33 165.9C123.221 165.854 123.122 165.788 123.038 165.704L114.837 157.503C114.753 157.42 114.687 157.32 114.642 157.211C114.597 157.102 114.574 156.985 114.574 156.867C114.574 156.749 114.597 156.632 114.642 156.523C114.687 156.414 114.754 156.314 114.837 156.231C114.921 156.147 115.02 156.081 115.129 156.036C115.238 155.991 115.355 155.967 115.473 155.967C115.592 155.967 115.709 155.991 115.818 156.036C115.927 156.081 116.026 156.147 116.11 156.231L124.311 164.432C124.437 164.558 124.523 164.718 124.557 164.893C124.592 165.067 124.574 165.248 124.506 165.413C124.438 165.577 124.323 165.718 124.175 165.817C124.026 165.916 123.852 165.968 123.674 165.968ZM130.037 159.609C129.919 159.609 129.802 159.586 129.693 159.541C129.583 159.495 129.484 159.429 129.401 159.345L121.2 151.141C121.031 150.972 120.936 150.743 120.936 150.504C120.936 150.266 121.031 150.037 121.2 149.868C121.369 149.699 121.597 149.605 121.836 149.605C122.075 149.605 122.303 149.699 122.472 149.868L130.673 158.073C130.799 158.199 130.885 158.359 130.92 158.534C130.955 158.708 130.937 158.889 130.869 159.054C130.801 159.218 130.685 159.359 130.537 159.458C130.389 159.557 130.215 159.609 130.037 159.609Z" fill="#D454D7"/>
<path d="M122.402 167.244C122.224 167.244 122.05 167.192 121.902 167.093C121.754 166.994 121.638 166.853 121.57 166.689C121.502 166.524 121.484 166.343 121.519 166.169C121.554 165.994 121.64 165.834 121.766 165.708L130.674 156.8C130.842 156.632 131.071 156.537 131.31 156.537C131.548 156.537 131.777 156.632 131.946 156.8C132.115 156.969 132.21 157.198 132.209 157.437C132.209 157.675 132.115 157.904 131.946 158.073L123.038 166.98C122.955 167.064 122.856 167.131 122.746 167.176C122.637 167.221 122.52 167.244 122.402 167.244Z" fill="#D454D7"/>
<path d="M160.585 187.61C160.467 187.611 160.35 187.587 160.241 187.542C160.132 187.497 160.033 187.43 159.949 187.347L130.673 158.073C130.505 157.904 130.41 157.675 130.41 157.437C130.41 157.198 130.505 156.969 130.673 156.8C130.842 156.632 131.071 156.537 131.309 156.537C131.548 156.537 131.777 156.632 131.946 156.8L161.222 186.074C161.348 186.2 161.433 186.36 161.468 186.535C161.503 186.709 161.485 186.89 161.417 187.055C161.349 187.219 161.234 187.36 161.086 187.459C160.938 187.558 160.763 187.61 160.585 187.61ZM151.797 196.634C151.679 196.634 151.562 196.611 151.453 196.566C151.343 196.521 151.244 196.454 151.161 196.371L121.765 166.98C121.682 166.897 121.616 166.798 121.57 166.689C121.525 166.579 121.502 166.462 121.502 166.344C121.502 166.226 121.525 166.109 121.57 166C121.616 165.891 121.682 165.792 121.765 165.708C121.849 165.624 121.948 165.558 122.057 165.513C122.166 165.468 122.283 165.444 122.402 165.444C122.52 165.444 122.637 165.468 122.746 165.513C122.855 165.558 122.954 165.624 123.038 165.708L152.433 195.098C152.559 195.224 152.645 195.384 152.68 195.559C152.715 195.733 152.697 195.914 152.629 196.079C152.561 196.243 152.445 196.384 152.297 196.483C152.149 196.582 151.975 196.634 151.797 196.634Z" fill="#D454D7"/>
<path d="M156.255 198.484C154.33 198.484 152.521 197.733 151.161 196.371C151.077 196.287 151.011 196.188 150.966 196.079C150.92 195.97 150.897 195.853 150.897 195.734C150.897 195.616 150.92 195.499 150.966 195.39C151.011 195.281 151.077 195.182 151.161 195.098C151.244 195.015 151.343 194.948 151.453 194.903C151.562 194.858 151.679 194.835 151.797 194.835C151.915 194.835 152.032 194.858 152.141 194.903C152.25 194.948 152.35 195.015 152.433 195.098C153.454 196.121 154.811 196.684 156.254 196.684H156.258C157.699 196.682 159.051 196.121 160.067 195.102C161.09 194.081 161.652 192.725 161.652 191.284C161.652 189.841 161.09 188.484 160.069 187.463C159.985 187.379 159.919 187.28 159.874 187.171C159.828 187.062 159.805 186.945 159.805 186.827C159.805 186.709 159.828 186.592 159.874 186.482C159.919 186.373 159.985 186.274 160.069 186.19C160.152 186.107 160.251 186.041 160.361 185.995C160.47 185.95 160.587 185.927 160.705 185.927C160.823 185.927 160.94 185.95 161.049 185.995C161.158 186.041 161.258 186.107 161.341 186.19C162.703 187.553 163.452 189.361 163.452 191.284C163.452 193.207 162.703 195.014 161.341 196.375C159.986 197.733 158.181 198.482 156.258 198.484L156.255 198.484Z" fill="#D454D7"/>
<path d="M158.16 190.271C158.042 190.272 157.925 190.248 157.815 190.203C157.706 190.158 157.607 190.092 157.524 190.008L130.673 163.16C130.59 163.076 130.524 162.977 130.478 162.868C130.433 162.758 130.41 162.641 130.41 162.523C130.41 162.405 130.433 162.288 130.478 162.179C130.523 162.07 130.59 161.971 130.673 161.887C130.757 161.804 130.856 161.737 130.965 161.692C131.074 161.647 131.191 161.624 131.309 161.624C131.428 161.624 131.545 161.647 131.654 161.692C131.763 161.737 131.862 161.803 131.946 161.887L158.796 188.736C158.922 188.861 159.007 189.022 159.042 189.196C159.077 189.371 159.059 189.552 158.991 189.716C158.923 189.88 158.808 190.021 158.66 190.12C158.512 190.219 158.338 190.271 158.16 190.271ZM106.741 124.691H70.7438C70.6257 124.691 70.5086 124.668 70.3994 124.623C70.2902 124.578 70.191 124.511 70.1074 124.428C70.0238 124.344 69.9575 124.245 69.9123 124.136C69.8671 124.027 69.8439 123.909 69.844 123.791V120.192C69.844 119.694 70.2465 119.291 70.7438 119.291H106.741C107.238 119.291 107.641 119.694 107.641 120.192V123.791C107.641 123.909 107.618 124.027 107.573 124.136C107.527 124.245 107.461 124.344 107.378 124.428C107.294 124.511 107.195 124.578 107.085 124.623C106.976 124.668 106.859 124.691 106.741 124.691ZM71.644 122.891H105.841V121.091H71.644V122.891Z" fill="#3C65F5"/>
<path d="M76.1416 142.69C75.9337 142.689 75.7324 142.617 75.5719 142.485C75.4114 142.353 75.3015 142.169 75.2611 141.965L71.6613 123.967C71.6379 123.851 71.6376 123.732 71.6605 123.616C71.6834 123.5 71.729 123.389 71.7947 123.291C71.8603 123.193 71.9448 123.108 72.0431 123.043C72.1415 122.977 72.2519 122.932 72.3679 122.909C72.8353 122.81 73.3276 123.125 73.426 123.616L77.0255 141.614C77.0489 141.73 77.0491 141.849 77.0263 141.965C77.0034 142.081 76.9578 142.192 76.8921 142.29C76.8265 142.388 76.742 142.473 76.6437 142.538C76.5453 142.604 76.4349 142.649 76.3189 142.672C76.2606 142.684 76.2012 142.69 76.1416 142.69Z" fill="#3C65F5"/>
<path d="M101.341 142.69H76.1434C75.6461 142.69 75.2435 142.287 75.2435 141.79C75.2435 141.292 75.6461 140.89 76.1434 140.89H101.341C101.839 140.89 102.241 141.292 102.241 141.79C102.241 142.287 101.839 142.69 101.341 142.69Z" fill="#3C65F5"/>
<path d="M101.343 142.69C101.283 142.69 101.224 142.684 101.166 142.672C101.05 142.649 100.939 142.604 100.841 142.538C100.743 142.473 100.658 142.388 100.593 142.29C100.527 142.192 100.481 142.081 100.458 141.965C100.435 141.849 100.436 141.73 100.459 141.614L104.059 123.616C104.157 123.125 104.647 122.812 105.117 122.909C105.233 122.932 105.343 122.977 105.442 123.043C105.54 123.108 105.624 123.193 105.69 123.291C105.756 123.389 105.801 123.5 105.824 123.616C105.847 123.732 105.847 123.851 105.823 123.967L102.224 141.965C102.183 142.169 102.073 142.353 101.913 142.485C101.752 142.617 101.551 142.689 101.343 142.69ZM88.7423 137.29C88.6241 137.29 88.507 137.267 88.3978 137.222C88.2886 137.176 88.1894 137.11 88.1058 137.027C88.0223 136.943 87.956 136.844 87.9108 136.735C87.8656 136.625 87.8423 136.508 87.8424 136.39V129.191C87.8423 129.073 87.8656 128.956 87.9108 128.846C87.956 128.737 88.0223 128.638 88.1058 128.554C88.1894 128.471 88.2886 128.405 88.3978 128.359C88.507 128.314 88.6241 128.291 88.7423 128.291C89.2398 128.291 89.6424 128.694 89.6424 129.191V136.39C89.6425 136.508 89.6192 136.625 89.574 136.735C89.5288 136.844 89.4625 136.943 89.3789 137.027C89.2953 137.11 89.196 137.177 89.0868 137.222C88.9776 137.267 88.8605 137.29 88.7423 137.29ZM94.1421 137.29C94.0239 137.29 93.9068 137.267 93.7976 137.222C93.6884 137.176 93.5892 137.11 93.5056 137.027C93.422 136.943 93.3558 136.844 93.3105 136.735C93.2653 136.625 93.2421 136.508 93.2422 136.39V129.191C93.2421 129.073 93.2653 128.956 93.3105 128.846C93.3558 128.737 93.422 128.638 93.5056 128.554C93.5892 128.471 93.6884 128.405 93.7976 128.359C93.9068 128.314 94.0239 128.291 94.1421 128.291C94.2602 128.291 94.3773 128.314 94.4865 128.359C94.5957 128.405 94.6949 128.471 94.7785 128.554C94.8621 128.638 94.9284 128.737 94.9736 128.846C95.0188 128.956 95.042 129.073 95.0419 129.191V136.39C95.042 136.508 95.0188 136.625 94.9736 136.735C94.9284 136.844 94.8622 136.943 94.7786 137.027C94.695 137.11 94.5958 137.177 94.4865 137.222C94.3773 137.267 94.2603 137.29 94.1421 137.29ZM83.3429 137.29C82.8456 137.29 82.4428 136.888 82.4428 136.39V129.191C82.4428 128.694 82.8454 128.291 83.3429 128.291C83.8405 128.291 84.2428 128.694 84.2428 129.191V136.39C84.2429 136.508 84.2197 136.625 84.1745 136.735C84.1293 136.844 84.063 136.943 83.9794 137.027C83.8958 137.11 83.7966 137.176 83.6874 137.222C83.5782 137.267 83.4611 137.29 83.3429 137.29ZM77.9434 121.091C77.7654 121.091 77.5914 121.039 77.4433 120.94C77.2953 120.841 77.1799 120.701 77.1118 120.536C77.0437 120.372 77.0259 120.191 77.0606 120.016C77.0954 119.842 77.1811 119.681 77.307 119.555L86.3063 110.556C86.4751 110.387 86.704 110.292 86.9426 110.292C87.1813 110.292 87.4101 110.387 87.5789 110.556C87.7476 110.725 87.8424 110.954 87.8424 111.192C87.8424 111.431 87.7476 111.66 87.5789 111.829L78.5796 120.828C78.4961 120.912 78.3969 120.978 78.2878 121.023C78.1786 121.068 78.0616 121.092 77.9434 121.091ZM99.5416 121.091C99.4234 121.092 99.3064 121.068 99.1972 121.023C99.0881 120.978 98.9889 120.912 98.9055 120.828L89.9061 111.829C89.8226 111.745 89.7563 111.646 89.7111 111.537C89.6658 111.427 89.6426 111.31 89.6426 111.192C89.6426 111.074 89.6658 110.957 89.7111 110.848C89.7563 110.739 89.8226 110.64 89.9061 110.556C89.9897 110.472 90.0889 110.406 90.198 110.361C90.3072 110.316 90.4242 110.292 90.5424 110.292C90.6606 110.292 90.7776 110.316 90.8867 110.361C90.9959 110.406 91.0951 110.472 91.1787 110.556L100.178 119.555C100.304 119.681 100.39 119.842 100.424 120.016C100.459 120.191 100.441 120.372 100.373 120.536C100.305 120.701 100.19 120.841 100.042 120.94C99.8936 121.039 99.7196 121.091 99.5416 121.091Z" fill="#3C65F5"/>
</g>
<defs>
<clipPath id="clip0_67_3178">
<rect width="115.214" height="115.214" fill="white" transform="translate(48.2511 83.2738)"/>
</clipPath>
</defs>
</svg>
